<svg width="54" height="64" viewBox="0 0 54 64" fill="none" xmlns="http://www.w3.org/2000/svg">
<path d="M50.7577 8.66125L28.8055 0.330627C28.2285 0.112177 27.6157 0 27.003 0C26.3902 0 25.7774 0.112177 25.2004 0.330627L3.24822 8.66125C1.30882 9.39926 0.00595491 11.2768 0.00595491 13.3373V34.3557L10.0956 28.5756V16.7852L27.003 10.3675L43.5772 16.6554L27.003 26.1432L1.14817 40.9506C0.440229 41.3579 0 42.1137 0 42.9225V50.6627C0 52.7232 1.30286 54.6066 3.24227 55.3387L25.1944 63.6694C25.7715 63.8878 26.3843 64 26.997 64C27.6098 64 28.2225 63.8878 28.7996 63.6694L50.7518 55.3387C52.6912 54.6007 53.994 52.7232 53.994 50.6627V29.4849L43.9044 35.2649V47.2148L26.997 53.6325L10.2682 47.2856L26.997 37.7033L52.9291 22.8546C53.5895 22.4768 54 21.7742 54 21.0184V13.3373C54 11.2768 52.6971 9.39336 50.7577 8.66125Z" fill="#15D7C4"/>
</svg>
